<?xml version="1.0" encoding="UTF-8"?>
<svg version="1.1" xmlns="http://www.w3.org/2000/svg" width="2000" height="500">
<path d="M0 0 C9.05932333 8.63216466 12.87403921 18.17837122 13.3125 30.625 C12.91513923 45.20019322 7.93744116 57.41693383 0.875 69.9375 C0.32972656 70.91332031 -0.21554687 71.88914062 -0.77734375 72.89453125 C-5.62172706 80.98429604 -11.8178166 87.97072735 -18.125 94.9375 C-18.8159375 95.70191406 -19.506875 96.46632813 -20.21875 97.25390625 C-35.47473411 113.25329637 -55.72601542 124.62483843 -78.125 125.4375 C-87.25251166 125.16566116 -96.0496424 122.65358776 -104.66015625 119.7421875 C-111.82915577 118.07723383 -118.5073156 120.87283804 -125.2734375 123.140625 C-126.24423248 123.46029236 -127.21502747 123.77995972 -128.21524048 124.10931396 C-131.31201632 125.12985682 -134.40614279 126.15814641 -137.5 127.1875 C-176.852841 140.23426397 -176.852841 140.23426397 -188.75 141.6875 C-189.94882812 141.85572266 -189.94882812 141.85572266 -191.171875 142.02734375 C-205.80811266 143.97731272 -220.46419188 144.12392006 -235.20288086 144.12280273 C-238.42119593 144.12498892 -241.63916705 144.14321167 -244.85742188 144.16210938 C-261.73121557 144.21003247 -277.81512991 143.1299197 -294.25 139.125 C-295.3632666 138.85929199 -296.4765332 138.59358398 -297.62353516 138.31982422 C-306.25943011 136.22327032 -314.76047966 133.95330726 -323.125 130.9375 C-323.86282715 130.67275879 -324.6006543 130.40801758 -325.36083984 130.13525391 C-363.33862839 116.26040967 -404.70539245 90.82764408 -424.61328125 54.19921875 C-427.131236 48.63549056 -428.32532353 43.00342068 -427.125 36.9375 C-425.1875 33.75 -425.1875 33.75 -422.125 31.9375 C-415.27459877 31.24605763 -409.80494752 34.15403309 -404.46240234 38.19506836 C-402.77869228 39.57827839 -401.1347461 40.99678275 -399.5 42.4375 C-398.89881348 42.96013428 -398.29762695 43.48276855 -397.67822266 44.02124023 C-391.37551577 49.53136647 -385.24362629 55.22488488 -379.125 60.9375 C-363.70643905 75.33039354 -347.35509483 88.26414237 -329.125 98.9375 C-327.95040886 99.65085732 -326.77593323 100.36440487 -325.6015625 101.078125 C-292.87285399 120.60194442 -258.44868381 127.1656887 -220.875 127.25 C-219.94854675 127.25376648 -219.02209351 127.25753296 -218.06756592 127.26141357 C-187.23179663 127.32488834 -149.61917409 124.31033325 -125.43359375 102.51171875 C-120.47854282 96.98654352 -119.57489223 92.61184748 -118.75 85.4375 C-116.29307079 67.20224713 -108.10653746 52.77680198 -96.125 38.9375 C-95.69735352 38.43750488 -95.26970703 37.93750977 -94.82910156 37.42236328 C-77.56224756 17.38330795 -52.64492111 -0.89755675 -25.9375 -4.8125 C-7.37004637 -6.03003794 -7.37004637 -6.03003794 0 0 Z M-2.125 43.9375 C-5.01481894 47.73554775 -7.40751538 51.36515179 -9.4375 55.6875 C-13.90323748 64.86939015 -20.35943627 72.46822511 -27.33984375 79.84375 C-29.32193339 81.90351472 -29.32193339 81.90351472 -30.125 84.9375 C-31.44254028 85.63485919 -32.77813898 86.29860439 -34.125 86.9375 C-35.73311218 88.41601562 -35.73311218 88.41601562 -37.25 90.125 C-45.46328983 98.51156599 -55.79929461 103.63697123 -66.125 108.9375 C-59.92178037 111.12011432 -53.85836359 107.21456332 -48.265625 104.6015625 C-27.28352813 93.43001363 -9.48428486 71.386765 -1.5859375 49.109375 C-0.89856452 46.7729889 -0.89856452 46.7729889 -2.125 43.9375 Z " fill="#000000" transform="translate(491.125,354.0625)"/>
<path d="M0 0 C0.7425 0.825 1.485 1.65 2.25 2.5 C7.78727417 8.32123695 12.23133854 10.70208393 20.25 11.5 C23.77728504 11.47487038 27.29111944 11.25817938 30.8125 11.0625 C90.29183813 8.36630306 90.29183813 8.36630306 115.25 13.5 C116.25724121 13.69867676 117.26448242 13.89735352 118.30224609 14.10205078 C141.63576166 18.795473 163.87312574 26.02691844 185.25 36.5 C185.9826709 36.85674805 186.7153418 37.21349609 187.47021484 37.58105469 C203.95456093 45.7024837 218.89728077 56.07914464 233.25 67.5 C234.74466797 68.65242188 234.74466797 68.65242188 236.26953125 69.828125 C237.65205078 70.90320313 237.65205078 70.90320313 239.0625 72 C239.87332031 72.6290625 240.68414062 73.258125 241.51953125 73.90625 C242.09058594 74.4321875 242.66164063 74.958125 243.25 75.5 C243.25 76.16 243.25 76.82 243.25 77.5 C243.83773193 77.76393555 244.42546387 78.02787109 245.03100586 78.29980469 C248.90264589 80.3938725 251.73315116 83.64571863 254.8125 86.75 C255.52486816 87.46728271 256.23723633 88.18456543 256.97119141 88.92358398 C263.30201106 95.39358175 268.96254656 102.16088306 274.25 109.5 C274.67474609 110.08040039 275.09949219 110.66080078 275.53710938 111.25878906 C286.15511701 125.90071638 298.42736776 145.88059913 297.25 164.6875 C295.99637491 169.46694564 294.33587657 171.91761088 290.4375 174.875 C286.97186465 175.86518153 284.72689514 175.44288682 281.25 174.5 C274.91551935 170.43705121 270.94135315 164.25352356 266.8125 158.125 C266.12655762 157.1242041 265.44061523 156.1234082 264.73388672 155.09228516 C259.01824443 146.72383509 253.44127949 138.26286101 247.84790039 129.8125 C242.94321437 122.44176051 237.81538015 115.38444752 232.25 108.5 C231.3995813 107.40123535 231.3995813 107.40123535 230.53198242 106.28027344 C225.58407016 99.94467509 220.26342284 94.16302288 214.5625 88.5 C213.68182861 87.62424316 212.80115723 86.74848633 211.89379883 85.84619141 C205.37441037 79.44316732 198.78442994 73.69648497 191.25 68.5 C190.69634766 68.10731934 190.14269531 67.71463867 189.57226562 67.31005859 C146.63107692 36.88336525 90.46240446 20.47981963 37.8671875 29.32421875 C25.6283506 31.53518942 25.6283506 31.53518942 16.4375 39.1875 C15.17957039 42.25859246 15.17957039 42.25859246 15.0546875 44.67578125 C14.78467933 47.2669887 14.396687 49.15141514 13.25 51.5 C9.66237571 54.34418124 5.4943809 55.88366881 1.25 57.5 C0.48623047 57.79197266 -0.27753906 58.08394531 -1.06445312 58.38476562 C-4.55598775 59.71160372 -8.05150548 61.02761069 -11.54956055 62.3371582 C-37.67182475 72.20032972 -60.22916241 86.61230866 -80.75 105.5 C-82.69486559 107.21027091 -84.65144477 108.90628145 -86.609375 110.6015625 C-88.26702089 112.07166451 -89.8972503 113.57271144 -91.515625 115.0859375 C-92.47984375 115.98570313 -93.4440625 116.88546875 -94.4375 117.8125 C-95.32824219 118.65425781 -96.21898437 119.49601562 -97.13671875 120.36328125 C-99.64673577 122.41556721 -101.68956904 123.50191351 -104.75 124.5 C-105.48828125 122.32421875 -105.48828125 122.32421875 -105.75 119.5 C-104.23046875 116.95703125 -104.23046875 116.95703125 -101.9375 114.3125 C-101.10734375 113.35472656 -100.2771875 112.39695312 -99.421875 111.41015625 C-92.91334744 104.32118982 -86.07457899 97.73394794 -78.75 91.5 C-77.69850124 90.58545972 -76.64778684 89.67001722 -75.59765625 88.75390625 C-65.27386346 79.77738947 -54.85957494 71.30625029 -43.203125 64.09765625 C-37.09108534 60.14023114 -37.09108534 60.14023114 -32.75 54.5 C-47.97298337 60.58919335 -61.22868444 70.05015762 -73.75 80.5 C-74.26643066 80.92619629 -74.78286133 81.35239258 -75.31494141 81.79150391 C-82.19024206 87.47912496 -88.70768964 93.35897776 -94.9375 99.75 C-107.69656035 112.81552012 -107.69656035 112.81552012 -115.75 115.5 C-116.75 112.5 -116.75 112.5 -115.765625 110.46875 C-106.34539021 97.29709427 -94.02865271 85.98132007 -81.75 75.5 C-81.13012207 74.96262207 -80.51024414 74.42524414 -79.87158203 73.87158203 C-69.84298061 65.21583556 -59.34999359 57.66038107 -48.234375 50.4609375 C-42.1248548 46.82727422 -42.1248548 46.82727422 -37.75 41.5 C-53.84486865 49.0479384 -69.18980284 57.93050536 -82.75 69.5 C-84.64527871 71.02152445 -86.54113144 72.54233411 -88.4375 74.0625 C-92.35642363 77.2598088 -95.97153165 80.57749501 -99.41015625 84.28515625 C-100.75 85.5 -100.75 85.5 -102.75 85.5 C-102.75 86.16 -102.75 86.82 -102.75 87.5 C-104.37487657 89.23874102 -106.02104196 90.86957515 -107.75 92.5 C-108.29269531 93.02513184 -108.83539063 93.55026367 -109.39453125 94.09130859 C-111.1677666 95.80300107 -112.95725553 97.49626777 -114.75 99.1875 C-115.35328125 99.76822266 -115.9565625 100.34894531 -116.578125 100.94726562 C-119.78886888 103.96606286 -122.42273724 106.22968612 -126.75 107.5 C-127.08 106.51 -127.41 105.52 -127.75 104.5 C-118.89407918 87.62420683 -100.76095817 71.91052824 -85.75 60.5 C-85.01587891 59.93780762 -84.28175781 59.37561523 -83.52539062 58.79638672 C-74.60912268 51.98271387 -65.67018674 45.32046186 -56.25 39.21875 C-52.47134079 36.62092179 -49.0852365 33.63904612 -45.75 30.5 C-49.53162721 31.08136904 -52.27033879 32.14987517 -55.55859375 34.08984375 C-56.91645996 34.88805542 -56.91645996 34.88805542 -58.30175781 35.70239258 C-59.25405273 36.27497803 -60.20634766 36.84756348 -61.1875 37.4375 C-62.16944336 38.02362061 -63.15138672 38.60974121 -64.16308594 39.21362305 C-71.99396661 43.93851156 -79.47585088 48.96238516 -86.75 54.5 C-87.57757813 55.11617187 -88.40515625 55.73234375 -89.2578125 56.3671875 C-100.35994575 64.90447148 -110.61180411 74.80127215 -119.80078125 85.35546875 C-122.85750152 88.71847361 -126.26098121 91.59984514 -129.75 94.5 C-130.31976563 95.00789063 -130.88953125 95.51578125 -131.4765625 96.0390625 C-135.40153631 99.5 -135.40153631 99.5 -138.75 99.5 C-138.34221962 83.59656506 -112.42156119 64.71482842 -101.75 54.5 C-98.24025549 51.29100811 -94.54239028 48.36770253 -90.75 45.5 C-89.8115625 44.74460938 -88.873125 43.98921875 -87.90625 43.2109375 C-64.75062029 24.7916866 -39.31333122 11.97279147 -11.75 1.5 C-10.41001953 0.98832275 -10.41001953 0.98832275 -9.04296875 0.46630859 C-7.84220703 0.0324585 -7.84220703 0.0324585 -6.6171875 -0.41015625 C-5.58634033 -0.78539429 -5.58634033 -0.78539429 -4.53466797 -1.16821289 C-2.75 -1.5 -2.75 -1.5 0 0 Z " fill="#000000" transform="translate(195.75,1.5)"/>
<path d="M0 0 C9.24 0 18.48 0 28 0 C30.91763668 7.22243045 33.83516936 14.44490275 36.75244141 21.66748047 C37.74359193 24.12128091 38.73480199 26.57505731 39.72607422 29.02880859 C41.15608356 32.56862066 42.58587433 36.10852095 44.015625 39.6484375 C44.67368134 41.277173 44.67368134 41.277173 45.34503174 42.93881226 C47.9090031 49.28764983 50.46188999 55.6407781 53 62 C54.73119689 57.83417471 56.45993927 53.66733425 58.1875 49.5 C58.4510025 48.86461304 58.714505 48.22922607 58.98599243 47.57458496 C62.24032129 39.72359475 65.46973714 31.86315486 68.65625 23.984375 C68.95308182 23.25089844 69.24991364 22.51742187 69.55574036 21.76171875 C71.00653018 18.17527845 72.45398734 14.58753605 73.8972168 10.99804688 C74.42489051 9.69137518 74.95263732 8.384733 75.48046875 7.078125 C76.17499146 5.35190918 76.17499146 5.35190918 76.88354492 3.59082031 C78 1 78 1 79 0 C88.24 0 97.48 0 107 0 C107 31.02 107 62.04 107 94 C99.08 94 91.16 94 83 94 C82.67 77.5 82.34 61 82 44 C80.71222656 47.44179688 79.42445313 50.88359375 78.09765625 54.4296875 C76.85353466 57.75254005 75.60903681 61.07525144 74.36450195 64.39794922 C73.49789675 66.71225475 72.63168451 69.02670746 71.76586914 71.34130859 C70.523325 74.66282039 69.27938159 77.98380517 68.03515625 81.3046875 C67.64658951 82.34430634 67.25802277 83.38392517 66.85768127 84.45504761 C66.31723427 85.89631516 66.31723427 85.89631516 65.76586914 87.36669922 C65.28954796 88.63910965 65.28954796 88.63910965 64.80360413 89.93722534 C64 92 64 92 63 94 C56.4 94 49.8 94 43 94 C41.25795507 89.45103995 39.51626453 84.90194701 37.77539062 80.35253906 C37.18606557 78.81275157 36.59655463 77.27303521 36.00683594 75.73339844 C35.14726678 73.48913085 34.28842234 71.24458694 33.4296875 69 C33.17629608 68.33887207 32.92290466 67.67774414 32.66183472 66.99658203 C29.73616682 59.34509691 26.87653548 51.67076129 24 44 C23.67 60.5 23.34 77 23 94 C15.41 94 7.82 94 0 94 C0 62.98 0 31.96 0 0 Z " fill="#000000" transform="translate(709,216)"/>
<path d="M0 0 C8.29257736 6.09436215 15.79952231 13.84765315 17.69775391 24.35913086 C17.83874512 25.29249268 17.97973633 26.22585449 18.125 27.1875 C13.85439382 27.30339162 9.58419016 27.37464802 5.3125 27.4375 C4.09755859 27.47101563 2.88261719 27.50453125 1.63085938 27.5390625 C0.46748047 27.55195313 -0.69589844 27.56484375 -1.89453125 27.578125 C-2.96807861 27.59907227 -4.04162598 27.62001953 -5.14770508 27.64160156 C-7.875 27.1875 -7.875 27.1875 -9.7487793 25.28808594 C-10.875 23.1875 -10.875 23.1875 -10.875 21.1875 C-11.41125 20.919375 -11.9475 20.65125 -12.5 20.375 C-14.875 19.1875 -14.875 19.1875 -17.3125 17.5625 C-23.7307955 15.08526314 -30.87287148 15.16892068 -37.375 17.375 C-43.27920071 21.65554552 -47.056609 26.07924425 -48.875 33.1875 C-49.75927125 41.93196014 -50.01179928 50.6412574 -44.875 58.1875 C-40.93470335 62.95733279 -37.14434521 65.83751788 -30.8828125 66.5078125 C-24.31788964 66.73523477 -18.04867165 66.67695057 -12.875 62.1875 C-12.20404297 60.640625 -12.20404297 60.640625 -11.51953125 59.0625 C-8.875 56.1875 -8.875 56.1875 -6.02709961 55.70166016 C-2.37663654 55.59571481 1.22598909 55.66623954 4.875 55.8125 C6.14472656 55.83957031 7.41445313 55.86664063 8.72265625 55.89453125 C11.85847906 55.9652641 14.99088663 56.06393508 18.125 56.1875 C17.6754294 57.60441466 17.21979929 59.01940738 16.76171875 60.43359375 C16.50865967 61.2217749 16.25560059 62.00995605 15.99487305 62.82202148 C11.93927361 73.85056567 3.56702043 80.94260419 -6.75 85.9609375 C-19.10979355 90.81215647 -33.41394049 91.02221232 -45.9140625 86.50390625 C-58.34884243 80.97551465 -66.65717766 72.71989698 -71.90625 60.09375 C-76.14253223 47.38490332 -76.16732176 32.61117425 -70.875 20.1875 C-64.42732755 7.70094124 -56.20385316 -0.45890905 -42.8125 -5.25 C-28.49470495 -9.18271184 -12.71014975 -7.96787539 0 0 Z " fill="#000000" transform="translate(359.875,221.8125)"/>
<path d="M0 0 C2.02514153 1.554076 3.38774171 2.99857591 5 5 C5.33 2.36 5.66 -0.28 6 -3 C13.92 -3 21.84 -3 30 -3 C30 21.75 30 46.5 30 72 C22.08 72 14.16 72 6 72 C5.505 68.535 5.505 68.535 5 65 C4.48050781 65.40992188 3.96101562 65.81984375 3.42578125 66.2421875 C2.72839844 66.78101563 2.03101563 67.31984375 1.3125 67.875 C0.62800781 68.40867187 -0.05648437 68.94234375 -0.76171875 69.4921875 C-7.18643613 73.8201821 -14.53548065 74.57352768 -22.1015625 73.6015625 C-32.30093874 71.40676002 -38.39893083 66.60694455 -44.52734375 58.30078125 C-50.93706156 48.28665979 -51.26034737 35.39519519 -49.5390625 23.9296875 C-47.17745514 14.17763826 -42.60156919 6.24177556 -34.34375 0.40625 C-23.57275115 -6.05634931 -11.07355943 -5.7384505 0 0 Z M-23.375 24 C-26.03016839 28.90184934 -26.71941581 33.41692798 -26 39 C-24.12087021 44.83067129 -21.14743085 48.73336119 -16 52 C-11.71182931 53.40610078 -8.64574818 53.18606303 -4.3125 51.9375 C0.34886183 49.21104308 2.92814388 46.09499151 5.375 41.3125 C6.56435354 35.00892623 6.42645283 28.49087672 2.8125 23 C-0.80486271 18.69017071 -4.3503313 17.18329652 -9.9375 16.5625 C-15.93062301 16.8260599 -19.71633754 19.37853163 -23.375 24 Z " fill="#000000" transform="translate(581,238)"/>
<path d="M0 0 C2.02814156 1.5530021 3.38665945 2.99723242 5 5 C5.33 2.36 5.66 -0.28 6 -3 C13.92 -3 21.84 -3 30 -3 C30 21.75 30 46.5 30 72 C22.08 72 14.16 72 6 72 C5.505 68.535 5.505 68.535 5 65 C4.154375 65.763125 3.30875 66.52625 2.4375 67.3125 C-4.02360183 72.61661383 -10.73514288 74.15244796 -19 74 C-28.57866355 72.85007104 -35.64741433 69.31664522 -41.78125 61.82421875 C-49.34282317 51.09345682 -51.60379492 38.88796397 -49.50390625 25.94140625 C-47.23526638 15.87992432 -43.19455633 7.50495709 -35 1 C-24.0774831 -5.84477726 -11.42063159 -5.83141548 0 0 Z M-22 22 C-25.342814 26.85247193 -26.38645878 32.26188962 -25.78515625 38.078125 C-24.7725272 43.13162619 -22.78001589 46.38798481 -19 50 C-14.45666336 52.65742332 -11.0186407 53.49282187 -5.921875 52.57421875 C-1.62179009 51.28943728 1.20826983 49.09204161 3.8125 45.5 C6.44769935 39.9522119 7.19125365 33.68382244 5.28125 27.77734375 C3.2776648 23.45509342 1.08273385 20.61713709 -3 18 C-10.55183573 15.48272142 -16.10116336 16.84871178 -22 22 Z " fill="#000000" transform="translate(1049,238)"/>
<path d="M0 0 C2.02814156 1.5530021 3.38665945 2.99723242 5 5 C5.33 2.36 5.66 -0.28 6 -3 C13.92 -3 21.84 -3 30 -3 C30 21.75 30 46.5 30 72 C22.08 72 14.16 72 6 72 C5.505 68.535 5.505 68.535 5 65 C4.154375 65.763125 3.30875 66.52625 2.4375 67.3125 C-4.02360183 72.61661383 -10.73514288 74.15244796 -19 74 C-28.57866355 72.85007104 -35.64741433 69.31664522 -41.78125 61.82421875 C-49.34282317 51.09345682 -51.60379492 38.88796397 -49.50390625 25.94140625 C-47.23526638 15.87992432 -43.19455633 7.50495709 -35 1 C-24.0774831 -5.84477726 -11.42063159 -5.83141548 0 0 Z M-22 22 C-25.342814 26.85247193 -26.38645878 32.26188962 -25.78515625 38.078125 C-24.7725272 43.13162619 -22.78001589 46.38798481 -19 50 C-14.45666336 52.65742332 -11.0186407 53.49282187 -5.921875 52.57421875 C-1.62179009 51.28943728 1.20826983 49.09204161 3.8125 45.5 C6.44769935 39.9522119 7.19125365 33.68382244 5.28125 27.77734375 C3.2776648 23.45509342 1.08273385 20.61713709 -3 18 C-10.55183573 15.48272142 -16.10116336 16.84871178 -22 22 Z " fill="#000000" transform="translate(876,238)"/>
<path d="M0 0 C2.02814156 1.5530021 3.38665945 2.99723242 5 5 C5.33 2.36 5.66 -0.28 6 -3 C13.92 -3 21.84 -3 30 -3 C30 21.75 30 46.5 30 72 C22.08 72 14.16 72 6 72 C5.505 68.535 5.505 68.535 5 65 C4.154375 65.763125 3.30875 66.52625 2.4375 67.3125 C-4.02360183 72.61661383 -10.73514288 74.15244796 -19 74 C-28.57866355 72.85007104 -35.64741433 69.31664522 -41.78125 61.82421875 C-49.34282317 51.09345682 -51.60379492 38.88796397 -49.50390625 25.94140625 C-47.23526638 15.87992432 -43.19455633 7.50495709 -35 1 C-24.0774831 -5.84477726 -11.42063159 -5.83141548 0 0 Z M-22 22 C-25.342814 26.85247193 -26.38645878 32.26188962 -25.78515625 38.078125 C-24.7725272 43.13162619 -22.78001589 46.38798481 -19 50 C-14.45666336 52.65742332 -11.0186407 53.49282187 -5.921875 52.57421875 C-1.62179009 51.28943728 1.20826983 49.09204161 3.8125 45.5 C6.44769935 39.9522119 7.19125365 33.68382244 5.28125 27.77734375 C3.2776648 23.45509342 1.08273385 20.61713709 -3 18 C-10.55183573 15.48272142 -16.10116336 16.84871178 -22 22 Z " fill="#000000" transform="translate(436,238)"/>
<path d="M0 0 C1.66750259 1.17627437 3.28331549 2.42524637 4.88671875 3.6875 C5.21671875 1.3775 5.54671875 -0.9325 5.88671875 -3.3125 C13.80671875 -3.3125 21.72671875 -3.3125 29.88671875 -3.3125 C29.88671875 21.4375 29.88671875 46.1875 29.88671875 71.6875 C21.96671875 71.6875 14.04671875 71.6875 5.88671875 71.6875 C5.39171875 68.2225 5.39171875 68.2225 4.88671875 64.6875 C4.45101563 65.09742188 4.0153125 65.50734375 3.56640625 65.9296875 C-2.99660159 71.86764698 -9.33091623 73.54459169 -18.11328125 73.6875 C-26.49694164 73.10168522 -34.00746594 69.87261217 -39.93359375 63.83203125 C-41.5051214 61.85380172 -42.83166682 59.86382638 -44.11328125 57.6875 C-44.50257812 57.03265625 -44.891875 56.3778125 -45.29296875 55.703125 C-50.9388068 44.74113288 -51.18617917 31.41914141 -48.11328125 19.6875 C-44.72342224 10.1570883 -39.5392323 3.03851447 -30.4765625 -1.6875 C-20.33976823 -5.85211733 -9.46363035 -5.87759667 0 0 Z M-22.42578125 23.25 C-26.08966802 28.54228089 -25.6840547 34.48134361 -25.11328125 40.6875 C-23.84511081 44.77463215 -21.60340024 47.26421542 -18.36328125 50.0625 C-13.80504733 52.34161696 -10.02887153 53.45816434 -5 52.12890625 C-0.38519626 50.17348094 2.6134259 47.48458913 5.04296875 43.1015625 C7.09789998 37.22217594 6.67484371 31.09565959 4.76171875 25.25 C2.07734408 21.58135462 -1.00160291 18.74333917 -5.11328125 16.6875 C-12.77995219 15.75216615 -17.16451143 17.41994425 -22.42578125 23.25 Z " fill="#000000" transform="translate(1229.11328125,238.3125)"/>
<path d="M0 0 C7.92 0 15.84 0 24 0 C24.33 16.83 24.66 33.66 25 51 C33.74639222 39.86345232 33.74639222 39.86345232 41.34765625 27.9765625 C43.53798047 24.78805596 44.51004856 24.11132981 48.33935547 23.24121094 C52.42770324 23.01331404 56.35841569 23.12270514 60.4375 23.375 C61.85075381 23.42522454 63.26417934 23.47084093 64.67773438 23.51171875 C68.12208878 23.62130071 71.55994104 23.79343757 75 24 C73.30569405 26.91663109 71.62252787 29.62641458 69.3984375 32.1640625 C68.91262207 32.72335449 68.42680664 33.28264648 67.92626953 33.85888672 C67.15839111 34.73311279 67.15839111 34.73311279 66.375 35.625 C65.29595515 36.86899438 64.21783941 38.11379525 63.140625 39.359375 C62.60888672 39.97361328 62.07714844 40.58785156 61.52929688 41.22070312 C55.75505628 47.93888088 50.22641647 54.84698295 45 62 C49.91257478 68.07869102 54.89834322 74.07983028 60 80 C75 97.42576628 75 97.42576628 75 99 C49.68616359 102.01471436 49.68616359 102.01471436 42.30175781 97.26416016 C38.06907335 93.0061134 35.09137631 88.03877926 32.49023438 82.65234375 C30.36400397 78.86804377 27.60442729 75.47256973 25 72 C24.67 80.91 24.34 89.82 24 99 C16.08 99 8.16 99 0 99 C0 66.33 0 33.66 0 0 Z " fill="#000000" transform="translate(921,211)"/>
<path d="M0 0 C6.95510156 5.47529272 9.91192865 13.47410627 11.25 21.9375 C11.49959249 25.80720227 11.48433715 29.65875207 11.4453125 33.53515625 C11.4424826 34.61002792 11.43965271 35.6848996 11.43673706 36.79234314 C11.42562274 40.19501302 11.40053447 43.59741089 11.375 47 C11.36495889 49.31965763 11.35583503 51.63931943 11.34765625 53.95898438 C11.32742138 59.61867639 11.28825566 65.27778696 11.25 70.9375 C3.33 70.9375 -4.59 70.9375 -12.75 70.9375 C-12.78738281 67.75867188 -12.82476563 64.57984375 -12.86328125 61.3046875 C-12.90952842 58.21672796 -12.96075055 55.1288881 -13.01245117 52.04101562 C-13.04564938 49.8994884 -13.07369714 47.75787476 -13.09643555 45.61621094 C-13.13007504 42.53282946 -13.18239654 39.45023631 -13.23828125 36.3671875 C-13.24467117 35.41383514 -13.2510611 34.46048279 -13.25764465 33.47824097 C-13.39175241 27.37737879 -14.07490041 22.70813886 -18.5 18.125 C-22.24695781 16.14743894 -25.68402204 15.5121516 -29.875 16.375 C-33.12043598 17.42499399 -35.10403795 18.16060914 -37.33032227 20.83813477 C-39.4262997 25.41396168 -39.22997512 29.72803354 -39.26171875 34.70703125 C-39.27966995 35.74317062 -39.29762115 36.77931 -39.31611633 37.84684753 C-39.37018686 41.14785729 -39.40410523 44.44872269 -39.4375 47.75 C-39.47067588 49.99155653 -39.50516578 52.23309402 -39.54101562 54.47460938 C-39.62837919 59.96226001 -39.68847735 65.44925557 -39.75 70.9375 C-47.67 70.9375 -55.59 70.9375 -63.75 70.9375 C-63.75 46.1875 -63.75 21.4375 -63.75 -4.0625 C-55.83 -4.0625 -47.91 -4.0625 -39.75 -4.0625 C-39.42 -1.7525 -39.09 0.5575 -38.75 2.9375 C-37.986875 2.174375 -37.22375 1.41125 -36.4375 0.625 C-26.34795269 -7.77102991 -10.6630414 -6.63791981 0 0 Z " fill="#000000" transform="translate(1338.75,239.0625)"/>
<path d="M0 0 C6.62578108 4.95764326 9.56951528 11.36781931 11.66015625 19.2421875 C12.14359677 23.40817955 12.13081502 27.50206778 12.05078125 31.69140625 C12.04512146 32.83003616 12.03946167 33.96866608 12.03363037 35.14179993 C12.01144204 38.73821081 11.96127769 42.33358351 11.91015625 45.9296875 C11.89006863 48.38475112 11.87182185 50.83983054 11.85546875 53.29492188 C11.81505583 59.27805449 11.73672776 65.25897456 11.66015625 71.2421875 C4.07015625 71.2421875 -3.51984375 71.2421875 -11.33984375 71.2421875 C-11.37722656 68.31472656 -11.41460938 65.38726562 -11.453125 62.37109375 C-11.4994391 59.51140197 -11.55063672 56.65183598 -11.60229492 53.79223633 C-11.63538955 51.81672924 -11.66346879 49.84113111 -11.6862793 47.86547852 C-11.72011131 45.01279178 -11.77243945 42.16092785 -11.828125 39.30859375 C-11.83451492 38.43634659 -11.84090485 37.56409943 -11.8474884 36.66542053 C-11.99916472 30.22729906 -12.73715625 23.32685416 -17.02734375 18.2421875 C-22.15853498 16.02329399 -25.91691054 15.7989788 -31.15234375 17.4296875 C-34.78158364 19.49337293 -36.68444701 21.06950291 -37.89732361 25.090271 C-38.36213639 27.35059364 -38.4987741 29.42901071 -38.54516602 31.73535156 C-38.56511124 32.61596252 -38.58505646 33.49657349 -38.60560608 34.40386963 C-38.63067482 35.81657135 -38.63067482 35.81657135 -38.65625 37.2578125 C-38.6770311 38.22877869 -38.69781219 39.19974487 -38.71922302 40.20013428 C-38.78453237 43.29741435 -38.84351698 46.39477818 -38.90234375 49.4921875 C-38.94554667 51.59375861 -38.98916153 53.6953213 -39.03320312 55.796875 C-39.14096881 60.94522795 -39.24018088 66.09364579 -39.33984375 71.2421875 C-47.25984375 71.2421875 -55.17984375 71.2421875 -63.33984375 71.2421875 C-63.33984375 46.4921875 -63.33984375 21.7421875 -63.33984375 -3.7578125 C-55.41984375 -3.7578125 -47.49984375 -3.7578125 -39.33984375 -3.7578125 C-39.00984375 -1.4478125 -38.67984375 0.8621875 -38.33984375 3.2421875 C-37.78296875 2.83226562 -37.22609375 2.42234375 -36.65234375 2 C-25.38514207 -5.95555794 -12.09099763 -7.54654522 0 0 Z " fill="#000000" transform="translate(1157.33984375,238.7578125)"/>
<path d="M0 0 C7.92 0 15.84 0 24 0 C24 5.94 24 11.88 24 18 C28.95 18 33.9 18 39 18 C39 24.6 39 31.2 39 38 C34.05 38 29.1 38 24 38 C24.11964908 42.68158848 24.24218479 47.36290793 24.37231445 52.04418945 C24.41572146 53.637893 24.45739219 55.2316448 24.49731445 56.82543945 C24.55487807 59.11163908 24.61861149 61.39759449 24.68359375 63.68359375 C24.70030624 64.40026718 24.71701874 65.11694061 24.73423767 65.85533142 C24.55018654 69.21527382 24.55018654 69.21527382 26 72 C30.32490853 72.4652292 34.65935537 72.70500473 39 73 C39 79.6 39 86.2 39 93 C13.83126786 93.99176265 13.83126786 93.99176265 5.37890625 86.578125 C-0.05228377 80.85460464 -0.29442933 73.6468934 -0.1953125 66.22265625 C-0.1924826 65.41130722 -0.18965271 64.59995819 -0.18673706 63.76402283 C-0.17562663 61.19669247 -0.15053971 58.62972322 -0.125 56.0625 C-0.11495836 54.31185403 -0.10583459 52.56120254 -0.09765625 50.81054688 C-0.07571734 46.54022746 -0.0412516 42.27017475 0 38 C-2.97 38 -5.94 38 -9 38 C-9 31.4 -9 24.8 -9 18 C-6.03 18 -3.06 18 0 18 C0 12.06 0 6.12 0 0 Z " fill="#000000" transform="translate(485,217)"/>
<path d="M0 0 C7.59 0 15.18 0 23 0 C23 5.94 23 11.88 23 18 C27.95 18 32.9 18 38 18 C38 24.6 38 31.2 38 38 C33.05 38 28.1 38 23 38 C23.0970745 42.19974926 23.19988469 46.39854303 23.31738281 50.59765625 C23.35560024 52.02530398 23.39046572 53.45304563 23.421875 54.88085938 C23.46768401 56.93653868 23.5256498 58.99157554 23.5859375 61.046875 C23.6173584 62.28276367 23.6487793 63.51865234 23.68115234 64.79199219 C23.97852101 67.78389436 24.2575547 69.57122651 26 72 C28.8786935 72.70535611 28.8786935 72.70535611 32.125 72.75 C34.06375 72.8325 36.0025 72.915 38 73 C38 79.6 38 86.2 38 93 C34.720625 93.0825 31.44125 93.165 28.0625 93.25 C27.04808838 93.28641602 26.03367676 93.32283203 24.98852539 93.36035156 C17.83870274 93.44638533 11.53593829 92.23039731 6.11547852 87.27832031 C0.4679265 81.26586594 -0.29785946 75.05130304 -0.1953125 67.1015625 C-0.1924826 66.26660248 -0.18965271 65.43164246 -0.18673706 64.57138062 C-0.17560301 61.92243709 -0.15051127 59.27384016 -0.125 56.625 C-0.11496143 54.82161949 -0.10583712 53.01823364 -0.09765625 51.21484375 C-0.0756859 46.80976367 -0.04120321 42.40494047 0 38 C-2.97 38 -5.94 38 -9 38 C-9 31.4 -9 24.8 -9 18 C-6.03 18 -3.06 18 0 18 C0 12.06 0 6.12 0 0 Z " fill="#000000" transform="translate(630,217)"/>
<path d="M0 0 C0.99 0.495 0.99 0.495 2 1 C-16.52000815 25.27051296 -52.52050704 37.84506943 -81.63354492 42.22412109 C-104.70972903 45.17608532 -127.98925856 42.40645802 -150 35 C-151.23234375 34.59265625 -152.4646875 34.1853125 -153.734375 33.765625 C-161.53865421 31.07087388 -168.87403826 27.70348588 -176.1875 23.875 C-176.98953857 23.45524902 -177.79157715 23.03549805 -178.61791992 22.60302734 C-182.72059897 20.39861578 -186.57175583 18.20152662 -190 15 C-190 14.34 -190 13.68 -190 13 C-184.56659207 13.93679447 -180.0059198 15.36994454 -175 17.6875 C-157.97020142 25.18281588 -139.47553386 29.27235311 -121 31 C-120.16082031 31.07976074 -119.32164062 31.15952148 -118.45703125 31.24169922 C-76.88092806 34.87881238 -37.69621172 23.07016491 -2.4140625 1.265625 C-1.61742187 0.84796875 -0.82078125 0.4303125 0 0 Z " fill="#000000" transform="translate(366,379)"/>
<path d="M0 0 C2.2969535 0.00315682 4.59260879 -0.02039862 6.8894043 -0.0456543 C32.92894627 -0.15724861 55.97828693 8.24447336 78.87182617 20.00317383 C79.60393311 20.37152344 80.33604004 20.73987305 81.09033203 21.11938477 C83.99380239 22.64959678 86.15942754 23.79707963 87.97338867 26.58520508 C88.14612305 27.15625977 88.31885742 27.72731445 88.49682617 28.31567383 C81.22222654 26.79105714 74.47594769 24.61328097 67.55932617 21.94067383 C60.67268712 19.31283171 53.79570015 17.20041537 46.62182617 15.50317383 C45.80335205 15.30868652 44.98487793 15.11419922 44.14160156 14.91381836 C0.57855787 5.04016528 -47.10754975 10.82969071 -85.50317383 34.31567383 C-88.93440022 36.53766104 -92.32883586 38.81194451 -95.67041016 41.16674805 C-100.195831 44.31567383 -100.195831 44.31567383 -103.50317383 44.31567383 C-95.54335788 26.41598821 -68.09168306 15.07160947 -50.8503418 8.18383789 C-34.43769752 2.11317396 -17.41202974 -0.04977499 0 0 Z " fill="#000000" transform="translate(260.503173828125,89.684326171875)"/>
</svg>
