<?xml version="1.0" encoding="UTF-8"?>
<svg version="1.1" xmlns="http://www.w3.org/2000/svg" width="500" height="500">
<path d="M0 0 C7.32463255 5.30237601 13.75698009 11.47951254 20 18 C24.26403961 16.57865346 26.66560971 13.48661443 29.609375 10.20703125 C39.5436963 -0.42778706 53.60390766 -9.1888429 68.34765625 -10.23828125 C81.38130532 -10.49868013 92.03848664 -7.80205853 102 1 C114.11883113 13.44793677 118.41104806 26.86329174 118.36791992 43.85131836 C118.21666086 52.08741034 116.7653336 59.20595746 114 67 C113.66097656 67.99773437 113.32195312 68.99546875 112.97265625 70.0234375 C100.01636674 104.41985022 68.88661234 131.04092944 38 149 C36.37578125 149.96486328 36.37578125 149.96486328 34.71875 150.94921875 C28.1324274 154.59036874 22.49620806 156.84799061 15 155 C-8.76021523 145.86337202 -33.15317371 125.70335481 -49 106 C-49.76828125 105.06929688 -50.5365625 104.13859375 -51.328125 103.1796875 C-66.40314234 84.55382207 -79.56998412 59.70040297 -77 35 C-74.67030897 19.39107011 -67.88889544 6.74769014 -55.25 -2.8125 C-36.8697285 -14.84220586 -17.65680076 -10.99024028 0 0 Z " fill="#ED1E25" transform="translate(228,283)"/>
<path d="M0 0 C15.98394579 15.17334949 24.58837088 37.15766349 26.078125 58.90234375 C26.43952753 81.82128761 18.34010308 103.98500019 3.41796875 121.3984375 C-8.76123745 133.55893524 -22.85680877 138.23774678 -39.68359375 138.25219727 C-54.94657891 138.00681632 -66.96865017 131.41653674 -78.00390625 121.1484375 C-95.35293412 103.0645521 -100.6980316 80.33547981 -100.40234375 56.078125 C-99.74835244 34.85106366 -89.71670105 14.3883341 -74.37109375 -0.1328125 C-52.72873206 -18.72642411 -21.71240906 -18.31774449 0 0 Z " fill="#FFFFFF" transform="translate(286.125,37.0625)"/>
<path d="M0 0 C1.2375 -0.02900391 2.475 -0.05800781 3.75 -0.08789062 C25.63256072 -0.23761341 42.42339315 12.21062733 57.49389648 26.87915039 C63.99963957 33.35057101 69.96929296 40.08191131 75.625 47.3125 C76.56360318 48.45283382 77.50519595 49.59071124 78.44921875 50.7265625 C126.02672117 108.32119107 130.49459602 178.4969087 130.92153931 250.25509644 C130.93199108 251.97072628 130.9467793 253.6863365 130.96640015 255.40188599 C131.14315326 273.04272474 129.34853721 291.24521684 117.57421875 305.34375 C110.06520694 312.92800241 100.18711682 317.12456777 89.5625 317.5625 C75.46607458 317.3517561 64.30166078 311.61970387 54.65625 301.71484375 C52.88069673 299.61491056 51.69327937 297.82644003 50.625 295.3125 C50.12871094 296.20710938 49.63242187 297.10171875 49.12109375 298.0234375 C37.29578014 319.15430018 37.29578014 319.15430018 31.625 321.3125 C28.1875 321.8125 28.1875 321.8125 24.625 321.3125 C21.53495306 318.55118146 19.83655281 316.71553423 19.2109375 312.56640625 C19.77219708 308.15575317 21.70759385 305.48726918 24.1875 301.875 C48.50572027 264.68217428 48.12121594 219.98035188 39.57299805 177.73535156 C33.07940819 145.23287757 33.07940819 145.23287757 17.7890625 116.20703125 C16.36969105 113.8969804 15.91919536 111.99919588 15.625 109.3125 C17.38641503 105.20253159 19.4812346 103.00767676 23.625 101.3125 C27.8876579 101.3125 29.90066675 101.66573314 33.10546875 104.52734375 C50.35766764 123.59837911 56.180792 152.74131829 60.375 177.25 C60.57375732 178.40226074 60.77251465 179.55452148 60.97729492 180.74169922 C64.72887554 204.0294791 64.81862373 227.15702961 64.43310547 250.68408203 C64.38961588 253.39361549 64.35725471 256.10288299 64.33621216 258.81268311 C64.31583639 261.32724677 64.27925884 263.84175456 64.22311401 266.35577393 C64.17425016 274.6439864 64.91957562 282.971848 70.50680542 289.51690674 C75.6592673 294.46913491 81.07021742 296.93163044 88.125 297.6875 C95.75079224 296.87045083 100.03216061 294.53183831 105.08203125 288.73828125 C109.10439145 282.41452003 110.06746313 276.62186712 109.99731445 269.30810547 C110.00096512 268.4449472 110.00461578 267.58178894 110.00837708 266.69247437 C110.01644223 263.85467467 110.00289023 261.01745407 109.98828125 258.1796875 C109.9877615 256.18116252 109.98828363 254.18263703 109.98979187 252.18411255 C109.98970228 247.99294401 109.9793124 243.80196831 109.96118164 239.61083984 C109.93870137 234.30408402 109.93791445 228.99761462 109.94469929 223.69082451 C109.94808637 219.55687023 109.94131822 215.42297815 109.93157005 211.2890358 C109.9277831 209.33671522 109.92654201 207.38438763 109.9281559 205.43206406 C109.93063592 187.4631695 109.14833365 169.38259345 105.4375 151.75 C105.22319336 150.71464111 105.00888672 149.67928223 104.78808594 148.61254883 C98.33685377 118.79955263 85.13435566 89.83848771 65.625 66.3125 C64.74202997 65.22538835 63.8592205 64.13814627 62.9765625 63.05078125 C52.56088566 50.35139308 41.27055482 39.52436237 27.85522461 29.99487305 C25.625 28.3125 25.625 28.3125 23.34985352 26.17114258 C14.60021988 18.49550197 5.71105008 19.27882204 -5.3125 19.5 C-7.97949144 19.52626272 -10.64576012 19.54103816 -13.31288147 19.53987122 C-14.96130595 19.54189184 -16.60982434 19.56102014 -18.25779724 19.59965515 C-21.57703144 19.62650911 -23.92977759 19.55948215 -26.8659668 17.93066406 C-28.76700978 15.89214071 -29.01745947 14.63293072 -29.25 11.875 C-29.32992188 11.11316406 -29.40984375 10.35132813 -29.4921875 9.56640625 C-29.35587384 6.94464023 -28.80097367 5.50738104 -27.375 3.3125 C-20.05944027 -1.56453982 -8.48827998 0.06590279 0 0 Z " fill="#FFFEFE" transform="translate(332.375,155.6875)"/>
<path d="M0 0 C1.21558594 0.00064453 2.43117187 0.00128906 3.68359375 0.00195312 C22.67897459 0.09416371 22.67897459 0.09416371 26.6875 3.125 C28.88589548 6.2792196 29.26819043 7.82517981 28.9375 11.625 C28.88207031 12.40746094 28.82664063 13.18992188 28.76953125 13.99609375 C27.87579238 17.03480592 26.89647333 17.64977048 24.125 19.1875 C21.32317348 19.38249959 18.73980624 19.41526956 15.94921875 19.3125 C14.29885088 19.29575961 12.64845609 19.28152224 10.99804688 19.26953125 C8.42080745 19.23692952 5.84800262 19.18878976 3.2722168 19.09521484 C-9.90197565 18.65807758 -17.52226452 21.02812891 -27.39703369 29.87968445 C-29.40042223 31.65243303 -31.5325725 33.22982822 -33.6875 34.8125 C-38.62676182 38.71046222 -43.28426149 42.88705819 -47.875 47.1875 C-48.8134375 48.06019531 -49.751875 48.93289062 -50.71875 49.83203125 C-85.29494411 82.73361121 -107.02852864 133.06936126 -108.97368622 180.59887695 C-109.01705024 183.05851163 -109.03288231 185.51655024 -109.03613281 187.9765625 C-109.04109772 188.89830261 -109.04606262 189.82004272 -109.05117798 190.76971436 C-109.06564642 193.78398412 -109.07257363 196.79820139 -109.078125 199.8125 C-109.08095238 200.84997375 -109.08377975 201.88744751 -109.08669281 202.95635986 C-109.10161845 208.44031015 -109.11089135 213.92423456 -109.11523438 219.40820312 C-109.12072781 225.05016422 -109.14479338 230.69188508 -109.17320633 236.33377075 C-109.19188271 240.69540085 -109.19704084 245.05697343 -109.19857025 249.41864014 C-109.20158295 251.49812135 -109.20956436 253.5776019 -109.22275543 255.65704346 C-109.23993074 258.57102556 -109.23790844 261.48442445 -109.23144531 264.3984375 C-109.2406601 265.24444519 -109.24987488 266.09045288 -109.2593689 266.96209717 C-109.18689392 277.46480846 -105.95171997 286.97357138 -98.5625 294.5625 C-93.53582475 297.60188504 -89.10439502 298.66221806 -83.375 297.625 C-77.3957974 296.00369636 -72.71062457 293.22157047 -68.5625 288.625 C-64.02801739 279.38809097 -63.47124808 269.96654845 -63.6875 259.83984375 C-63.69885986 258.58909561 -63.71021973 257.33834747 -63.72192383 256.04969788 C-63.77021519 250.76604346 -63.85371166 245.48314568 -63.93652344 240.19995117 C-64.27431229 216.5502868 -62.78144361 193.51730194 -58.0625 170.3125 C-57.80460693 169.02077881 -57.54671387 167.72905762 -57.28100586 166.39819336 C-46.81743388 114.86710415 -46.81743388 114.86710415 -30.875 102.1875 C-24.05691161 100.64793165 -24.05691161 100.64793165 -20 102.5 C-17.875 104.1875 -17.875 104.1875 -15.875 106.1875 C-15.29539206 111.6937754 -16.23093009 114.46324667 -19.375 118.9375 C-42.92040525 154.74635703 -49.95209692 212.9398868 -42.35327148 254.74511719 C-41.90609457 256.90634909 -41.40566805 259.04527939 -40.875 261.1875 C-40.67632324 261.99783691 -40.47764648 262.80817383 -40.27294922 263.64306641 C-37.01746419 276.44797418 -32.03836431 287.73270838 -25.72998047 299.28417969 C-25.36018066 299.98446289 -24.99038086 300.68474609 -24.609375 301.40625 C-24.26874023 302.03982422 -23.92810547 302.67339844 -23.57714844 303.32617188 C-22.875 305.1875 -22.875 305.1875 -23.25 308.9375 C-25.24227385 312.9220477 -26.84080746 314.32556498 -30.875 316.1875 C-34.79375322 316.26747456 -36.33616102 315.65833018 -39.2890625 313.078125 C-42.1589715 309.87006962 -44.14535816 306.63765603 -46.1875 302.875 C-46.54650391 302.22982422 -46.90550781 301.58464844 -47.27539062 300.91992188 C-48.14945475 299.34660645 -49.01330783 297.76762535 -49.875 296.1875 C-50.57625 296.99574219 -51.2775 297.80398438 -52 298.63671875 C-61.37393539 309.26991378 -69.81855832 315.51998483 -84.3125 317 C-95.90300443 317.6185188 -105.95288039 314.51924833 -115.23828125 307.3671875 C-124.61058985 298.64793995 -128.38217068 286.71680906 -128.9700222 274.15734863 C-129.01053484 272.02622194 -129.02157311 269.89713414 -129.02026367 267.765625 C-129.02362228 266.96420074 -129.0269809 266.16277649 -129.03044128 265.33706665 C-129.0398864 262.70386164 -129.04189232 260.07072087 -129.04296875 257.4375 C-129.04618992 255.57828751 -129.0495546 253.71907527 -129.05305481 251.85986328 C-129.05903306 247.95962947 -129.06089647 244.05941775 -129.06030273 240.15917969 C-129.06022201 236.20665864 -129.06707803 232.25425479 -129.08081055 228.30175781 C-129.25317497 177.93579464 -125.613107 129.29227692 -100.875 84.1875 C-100.49085937 83.48641113 -100.10671875 82.78532227 -99.7109375 82.06298828 C-94.18851555 72.10258773 -88.06867692 63.00667123 -80.875 54.1875 C-79.7303125 52.75470703 -79.7303125 52.75470703 -78.5625 51.29296875 C-57.95882771 25.71722971 -35.09224995 -0.35129228 0 0 Z " fill="#FFFFFF" transform="translate(164.875,155.8125)"/>
<path d="M0 0 C7.32463255 5.30237601 13.75698009 11.47951254 20 18 C24.26403961 16.57865346 26.66560971 13.48661443 29.609375 10.20703125 C39.5436963 -0.42778706 53.60390766 -9.1888429 68.34765625 -10.23828125 C81.38130532 -10.49868013 92.03848664 -7.80205853 102 1 C114.11883113 13.44793677 118.41104806 26.86329174 118.36791992 43.85131836 C118.21666086 52.08741034 116.7653336 59.20595746 114 67 C113.66097656 67.99773437 113.32195312 68.99546875 112.97265625 70.0234375 C100.01636674 104.41985022 68.88661234 131.04092944 38 149 C36.37578125 149.96486328 36.37578125 149.96486328 34.71875 150.94921875 C28.1324274 154.59036874 22.49620806 156.84799061 15 155 C-8.76021523 145.86337202 -33.15317371 125.70335481 -49 106 C-49.76828125 105.06929688 -50.5365625 104.13859375 -51.328125 103.1796875 C-66.40314234 84.55382207 -79.56998412 59.70040297 -77 35 C-74.67030897 19.39107011 -67.88889544 6.74769014 -55.25 -2.8125 C-36.8697285 -14.84220586 -17.65680076 -10.99024028 0 0 Z M-50 17 C-58.45336084 27.97311263 -59.24848115 38.82673284 -57.60546875 52.21484375 C-54.2151488 68.16028403 -44.14315402 83.96524018 -33.16796875 95.67578125 C-31.29198854 97.68696724 -29.553279 99.74835562 -27.8125 101.875 C-16.13154112 115.18648175 3.00133811 131.51353533 20 137 C25.08052856 136.02508776 29.25148921 133.24446709 33.5625 130.5 C34.26213867 130.05712646 34.96177734 129.61425293 35.68261719 129.15795898 C47.0835069 121.83492044 57.20714497 113.33486731 67 104 C67.86496094 103.19949219 68.72992188 102.39898437 69.62109375 101.57421875 C76.45938913 95.0559684 81.79509913 87.83435012 87 80 C87.58910156 79.12214844 88.17820312 78.24429688 88.78515625 77.33984375 C97.3556305 63.85943029 101.54549856 48.93178834 100 33 C97.84970522 24.13786278 93.28633155 17.46186185 86 12 C78.77469316 7.92955997 72.4514573 7.04173993 64.375 8.9375 C50.91562751 13.35608371 39.41318455 24.9103865 30.7734375 35.80859375 C27.84018638 39.43316177 25.08931924 39.88116517 20.5625 40.375 C13.61410918 39.64359044 9.59515438 34.73896142 5.25 29.75 C-3.79683052 19.71402315 -15.4410429 8.92622431 -29.5625 7.6875 C-37.40438053 7.80303415 -44.58836652 11.46537485 -50 17 Z " fill="#FEFDFE" transform="translate(228,283)"/>
<path d="M0 0 C0.66 0.07347656 1.32 0.14695312 2 0.22265625 C4.81292437 1.22805695 6.05678196 2.6675192 8 4.9375 C9.28027344 7.96191406 9.28027344 7.96191406 10.359375 11.453125 C10.94912109 13.32871094 10.94912109 13.32871094 11.55078125 15.2421875 C11.95079163 16.55720933 12.3505278 17.87231459 12.75 19.1875 C13.16422325 20.51858488 13.57957641 21.84931869 13.99609375 23.1796875 C15.00856396 26.4290105 16.00936429 29.68146688 17 32.9375 C17.40992188 32.29941406 17.81984375 31.66132813 18.2421875 31.00390625 C18.78101563 30.17761719 19.31984375 29.35132813 19.875 28.5 C20.40867187 27.67628906 20.94234375 26.85257812 21.4921875 26.00390625 C23 23.9375 23 23.9375 25 22.9375 C27.56751803 22.8022693 30.10665677 22.72487938 32.67578125 22.69921875 C33.43795456 22.691147 34.20012787 22.68307526 34.98539734 22.67475891 C36.60018643 22.66092025 38.21500474 22.65019711 39.82983398 22.64233398 C42.29272333 22.62513808 44.75426406 22.58125493 47.21679688 22.53710938 C48.78644847 22.52698065 50.35611147 22.51846511 51.92578125 22.51171875 C53.02603386 22.48545662 53.02603386 22.48545662 54.14851379 22.45866394 C57.82333103 22.47415757 59.83331648 22.82998982 62.95166016 24.84130859 C65.64372453 27.59626267 65.94719356 29.24857225 66.2109375 32.96875 C65.86866161 36.16332498 64.27376123 37.79366798 62 39.9375 C59.28598706 41.29450647 57.15153684 41.0498861 54.1171875 41.03515625 C52.95058594 41.03193359 51.78398437 41.02871094 50.58203125 41.02539062 C49.35871094 41.01701172 48.13539063 41.00863281 46.875 41 C45.64394531 40.99548828 44.41289062 40.99097656 43.14453125 40.98632812 C40.09630608 40.9745133 37.04817686 40.95804028 34 40.9375 C33.82259277 41.48494873 33.64518555 42.03239746 33.46240234 42.59643555 C31.67365726 48.04809819 29.75090556 53.42087186 27.625 58.75 C27.3465625 59.48669922 27.068125 60.22339844 26.78125 60.98242188 C24.96317006 65.51533739 23.29860813 68.28328006 19 70.9375 C15.49211102 71.52214816 13.71108798 71.31651791 10.57421875 69.64453125 C6.60994744 65.47573001 5.47437405 60.55119695 3.8125 55.125 C3.47025391 54.05701172 3.12800781 52.98902344 2.77539062 51.88867188 C1.09021459 46.59754636 -0.51183479 41.28726314 -2 35.9375 C-2.32613281 36.43121094 -2.65226562 36.92492187 -2.98828125 37.43359375 C-3.42527344 38.07425781 -3.86226562 38.71492188 -4.3125 39.375 C-4.74175781 40.01308594 -5.17101562 40.65117187 -5.61328125 41.30859375 C-7 42.9375 -7 42.9375 -10 43.9375 C-14.96633964 44.21321387 -19.93199735 44.25083952 -24.90527344 44.28759766 C-26.5483211 44.30416457 -28.19129646 44.33146479 -29.83398438 44.36962891 C-32.21001328 44.42449704 -34.58435983 44.44628218 -36.9609375 44.4609375 C-37.69130219 44.48360687 -38.42166687 44.50627625 -39.17416382 44.52963257 C-43.16077176 44.5131818 -44.82504313 44.07930199 -47.96313477 41.53588867 C-49.96333011 38.98427905 -50.66938417 38.03751397 -50.5625 34.875 C-50 30.9375 -50 30.9375 -48.125 28.5 C-44.62356223 25.92541341 -42.43972316 25.76797603 -38.1171875 25.62109375 C-36.95058594 25.57919922 -35.78398437 25.53730469 -34.58203125 25.49414062 C-32.74705078 25.43516602 -32.74705078 25.43516602 -30.875 25.375 C-29.64394531 25.33181641 -28.41289062 25.28863281 -27.14453125 25.24414062 C-24.09647147 25.13781296 -21.0483281 25.03578219 -18 24.9375 C-17.71801758 24.28676514 -17.43603516 23.63603027 -17.14550781 22.96557617 C-15.85854856 20.01352775 -14.55451884 17.06932833 -13.25 14.125 C-12.58484375 12.58875977 -12.58484375 12.58875977 -11.90625 11.02148438 C-11.46796875 10.03857422 -11.0296875 9.05566406 -10.578125 8.04296875 C-10.18012695 7.13699951 -9.78212891 6.23103027 -9.37207031 5.29760742 C-7.08732937 1.36760908 -4.59664566 -0.63742547 0 0 Z " fill="#FEFCFC" transform="translate(241,324.0625)"/>
</svg>
