<?xml version="1.0" encoding="UTF-8"?>
<svg version="1.1" xmlns="http://www.w3.org/2000/svg" width="255" height="255">
<path d="M0 0 C3.11502764 2.20455979 6.06970003 4.55713871 9 7 C10.010625 7.804375 11.02125 8.60875 12.0625 9.4375 C12.701875 9.953125 13.34125 10.46875 14 11 C14.22429687 10.42378906 14.44859375 9.84757813 14.6796875 9.25390625 C18.16682944 3.30100419 26.36678055 -1.53787747 32.90625 -3.6015625 C40.07530973 -4.96582387 47.64096649 -4.86223508 54 -1 C60.24320217 3.77690882 64.3655284 9.2566908 66 17 C67.54669897 32.56365839 63.53211571 46.31266933 53.68554688 58.64648438 C44.03989242 70.07001736 28.50501203 86.79377784 12.80078125 88.30859375 C8.10032687 87.92695357 5.18719578 86.43333627 1.1875 84.0625 C0.14082153 83.45776855 0.14082153 83.45776855 -0.92700195 82.84082031 C-6.95747513 79.24665551 -12.06031928 74.98878292 -17 70 C-18.299375 68.7625 -18.299375 68.7625 -19.625 67.5 C-20.800625 66.2625 -20.800625 66.2625 -22 65 C-22.88751953 64.10474609 -22.88751953 64.10474609 -23.79296875 63.19140625 C-34.09403199 52.33245177 -40.73154129 39.54073778 -41.4375 24.4375 C-41.16031112 16.08567862 -38.35581536 8.51767678 -32.578125 2.43359375 C-23.31533927 -5.98086754 -10.57970036 -6.56209263 0 0 Z " fill="#E41B22" transform="translate(114,141)"/>
<path d="M0 0 C9.98467065 8.39980229 15.13244837 21.04894586 16.25 33.875 C16.40228943 47.58104872 12.64663048 60.05296034 3.14453125 70.1015625 C-4.88105328 77.69893168 -11.24654879 79.50169106 -22.28125 79.21875 C-31.08737164 78.34607128 -37.89538105 74.44882861 -43.75 67.875 C-53.01151474 55.50487499 -55.30953885 41.95500445 -53.75 26.875 C-51.61970736 15.93630631 -45.58449907 5.77415242 -36.75 -1.125 C-24.786771 -7.89935859 -11.35516016 -8.2253345 0 0 Z " fill="#FBFBFB" transform="translate(145.75,7.125)"/>
<path d="M0 0 C27.94338489 25.91035225 39.05892661 58.55023189 41.125 95.9375 C41.18139648 96.94232422 41.23779297 97.94714844 41.29589844 98.98242188 C41.65401829 105.63200824 41.92165162 112.28149566 42.125 118.9375 C42.18880859 120.855625 42.18880859 120.855625 42.25390625 122.8125 C42.45228184 133.81573291 41.97534653 145.81468274 35.125 154.9375 C29.3388722 160.00036182 24.0596339 162.28172571 16.33984375 162.15234375 C8.05900554 161.34908784 2.86538867 157.67788867 -2.875 151.9375 C-3.36871094 152.71996094 -3.86242187 153.50242188 -4.37109375 154.30859375 C-5.01175781 155.32050781 -5.65242188 156.33242187 -6.3125 157.375 C-7.26962891 158.88900391 -7.26962891 158.88900391 -8.24609375 160.43359375 C-9.875 162.9375 -9.875 162.9375 -10.875 163.9375 C-16.11550633 164.3931962 -16.11550633 164.3931962 -18.75 162.8125 C-20.39663783 160.06810361 -20.13998606 158.10197122 -19.875 154.9375 C-18.51953125 152.2890625 -18.51953125 152.2890625 -16.6875 149.5625 C-13.69367085 144.69828672 -11.66106419 140.05009237 -10 134.625 C-9.79737549 133.96773926 -9.59475098 133.31047852 -9.38598633 132.63330078 C-2.76114249 109.9824536 -6.96137643 79.63831276 -17.52734375 58.65625 C-18.55533278 56.8566645 -19.6194118 55.07656574 -20.73828125 53.33203125 C-22.15579304 50.34600126 -22.18733466 48.20569744 -21.875 44.9375 C-20.25 43 -20.25 43 -17.875 41.9375 C-15 41.6875 -15 41.6875 -11.875 42.9375 C4.26192618 60.30001551 6.25054733 91.73360216 6.1328125 114.1640625 C6.12760841 115.23991859 6.12760841 115.23991859 6.12229919 116.33750916 C6.09904592 119.92581342 6.05031162 123.51153008 5.96411133 127.09887695 C5.94372803 128.415896 5.92334473 129.73291504 5.90234375 131.08984375 C5.87390381 132.26538818 5.84546387 133.44093262 5.81616211 134.65209961 C6.27208325 139.50216352 8.08045725 142.73934803 11.25 146.375 C15.36901606 148.61359568 18.68909095 148.24754417 23.125 146.9375 C26.11952434 144.69160675 26.94123122 143.48880633 28.125 139.9375 C28.22770745 138.20256538 28.27346699 136.46400014 28.28613281 134.72607422 C28.29574036 133.66000946 28.3053479 132.5939447 28.31524658 131.49557495 C28.31949646 130.33945709 28.32374634 129.18333923 28.328125 127.9921875 C28.33382507 126.79377228 28.33952515 125.59535706 28.34539795 124.36062622 C28.35485889 121.8135059 28.36138625 119.26637327 28.36523438 116.71923828 C28.37484027 112.87639896 28.40581162 109.03411769 28.4375 105.19140625 C28.50902111 88.84640504 27.88818968 73.3698356 22.4375 57.8125 C22.05513184 56.70322144 22.05513184 56.70322144 21.66503906 55.5715332 C15.27924355 37.77026991 4.4310621 23.01257177 -9.43408203 10.28027344 C-10.76348775 9.04141687 -12.03903919 7.74543418 -13.30859375 6.4453125 C-20.32156948 0.13924472 -27.29878615 0.08917454 -36.34716797 0.2355957 C-37.27416504 0.24550537 -38.20116211 0.25541504 -39.15625 0.265625 C-39.99220703 0.2955957 -40.82816406 0.32556641 -41.68945312 0.35644531 C-43.875 -0.0625 -43.875 -0.0625 -45.68164062 -1.85253906 C-47.46321698 -5.15180853 -46.74495229 -7.51577142 -45.875 -11.0625 C-29.82829485 -19.08585258 -12.08656468 -10.40628397 0 0 Z " fill="#000000" transform="translate(201.875,86.0625)"/>
<path d="M0 0 C0.77811718 3.81984796 1.24386556 6.26840331 0 10 C-2.3776154 11.1888077 -3.72206292 11.06880226 -6.3671875 11 C-18.9812265 10.92609187 -25.77050815 11.92550725 -35 21 C-35.85464844 21.70640625 -36.70929687 22.4128125 -37.58984375 23.140625 C-55.01714836 37.64100172 -66.33617687 59.33414777 -71.3125 81.1875 C-71.47202148 81.88713867 -71.63154297 82.58677734 -71.79589844 83.30761719 C-74.410001 95.77798283 -74.21508004 108.52878955 -74.24023438 121.2097168 C-74.25001318 124.19151966 -74.28115809 127.17265273 -74.3125 130.15429688 C-74.3190256 132.07551681 -74.32427781 133.99674158 -74.328125 135.91796875 C-74.3404718 136.79631882 -74.3528186 137.67466888 -74.36553955 138.57963562 C-74.3409004 145.48839685 -73.2008578 151.77731536 -69.25 157.5625 C-65.95502805 159.66762097 -63.84005976 159.52966341 -60 159 C-56.7007776 157.31926406 -54.59044799 156.14207759 -52.87109375 152.81640625 C-51.80323367 149.36381827 -51.56658767 146.23678229 -51.375 142.625 C-51.33415283 141.89023438 -51.29330566 141.15546875 -51.2512207 140.3984375 C-51.04458108 136.14051561 -50.99384659 131.91044028 -51.08203125 127.6484375 C-51.57222752 103.38902728 -48.9793823 75.70406147 -35 55 C-32 53 -32 53 -28.375 53.3125 C-25 54 -25 54 -24 55 C-23.47095038 61.40428492 -24.58781983 65.01670433 -27.75 70.5 C-39.08753536 91.62406402 -42.50640938 120.90531512 -35.890625 144.09375 C-34.28932417 149.27921492 -32.61343908 154.33513319 -29.6875 158.9375 C-27.43858925 163.01885654 -27.53163955 165.39445558 -28 170 C-30 172 -30 172 -33.25 172.6875 C-37 172 -37 172 -38.79296875 169.98828125 C-40.30237067 167.70445934 -41.69643006 165.40659066 -43 163 C-43.47308594 163.47050781 -43.94617187 163.94101563 -44.43359375 164.42578125 C-50.03460009 169.69924336 -54.94391549 172.83598033 -62.76953125 173.08984375 C-70.69962887 172.66676057 -75.82812871 170.55419525 -81.3125 164.6875 C-87.16482124 158.06555843 -86.30698038 149.13497604 -86.30078125 140.859375 C-86.30506638 139.58257874 -86.3093515 138.30578247 -86.31376648 136.99029541 C-86.32120744 134.28710784 -86.32095726 131.58405081 -86.31567383 128.88085938 C-86.31107622 126.14826856 -86.3178309 123.41612623 -86.33618164 120.68359375 C-86.59562114 81.72185492 -79.85027993 50.18786928 -54 20 C-53.30132812 19.14277344 -52.60265625 18.28554687 -51.8828125 17.40234375 C-39.94019718 3.25056332 -18.89596209 -9.44798105 0 0 Z " fill="#000000" transform="translate(97,75)"/>
<path d="M0 0 C3.11502764 2.20455979 6.06970003 4.55713871 9 7 C10.010625 7.804375 11.02125 8.60875 12.0625 9.4375 C12.701875 9.953125 13.34125 10.46875 14 11 C14.22429687 10.42378906 14.44859375 9.84757813 14.6796875 9.25390625 C18.16682944 3.30100419 26.36678055 -1.53787747 32.90625 -3.6015625 C40.07530973 -4.96582387 47.64096649 -4.86223508 54 -1 C60.24320217 3.77690882 64.3655284 9.2566908 66 17 C67.54669897 32.56365839 63.53211571 46.31266933 53.68554688 58.64648438 C44.03989242 70.07001736 28.50501203 86.79377784 12.80078125 88.30859375 C8.10032687 87.92695357 5.18719578 86.43333627 1.1875 84.0625 C0.14082153 83.45776855 0.14082153 83.45776855 -0.92700195 82.84082031 C-6.95747513 79.24665551 -12.06031928 74.98878292 -17 70 C-18.299375 68.7625 -18.299375 68.7625 -19.625 67.5 C-20.800625 66.2625 -20.800625 66.2625 -22 65 C-22.88751953 64.10474609 -22.88751953 64.10474609 -23.79296875 63.19140625 C-34.09403199 52.33245177 -40.73154129 39.54073778 -41.4375 24.4375 C-41.16031112 16.08567862 -38.35581536 8.51767678 -32.578125 2.43359375 C-23.31533927 -5.98086754 -10.57970036 -6.56209263 0 0 Z M-28 14 C-28 15.32 -28 16.64 -28 18 C-28.66 18 -29.32 18 -30 18 C-31.18474885 31.13754833 -26.01334448 42.75456476 -18 53 C-10.30675458 61.93251234 1.60476492 75.28265969 14 77 C16.67483275 75.51799807 19.03066473 74.02401477 21.5 72.25 C22.20688965 71.75137451 22.9137793 71.25274902 23.64208984 70.73901367 C32.66182433 64.25168827 42.40748581 56.78689983 48 47 C48 46.34 48 45.68 48 45 C48.66 45 49.32 45 50 45 C54.25836345 36.43257829 57.85659596 28.7790169 56 19 C54.25812181 14.14819318 51.63894269 11.02758993 47.1875 8.4375 C42.89829533 6.62345667 39.41986177 6.6126792 35 8 C28.84698603 10.65373118 23.48570959 14.84316141 19.625 20.3125 C17 23 17 23 13.375 24.0625 C7.69302663 23.68656603 4.23933217 18.62072494 0.6171875 14.7109375 C-3.15809892 10.80041694 -7.45698298 7.67188085 -13 7 C-14.8871875 6.7525 -14.8871875 6.7525 -16.8125 6.5 C-22.0176644 6.53906315 -25.25936766 9.78627777 -28 14 Z " fill="#040000" transform="translate(114,141)"/>
<path d="M0 0 C9.98467065 8.39980229 15.13244837 21.04894586 16.25 33.875 C16.40228943 47.58104872 12.64663048 60.05296034 3.14453125 70.1015625 C-4.88105328 77.69893168 -11.24654879 79.50169106 -22.28125 79.21875 C-31.08737164 78.34607128 -37.89538105 74.44882861 -43.75 67.875 C-53.01151474 55.50487499 -55.30953885 41.95500445 -53.75 26.875 C-51.61970736 15.93630631 -45.58449907 5.77415242 -36.75 -1.125 C-24.786771 -7.89935859 -11.35516016 -8.2253345 0 0 Z M-36 12.875 C-42.71420552 21.51541202 -43.89949864 32.29003334 -42.75 42.875 C-40.81762843 52.77840432 -36.0459646 60.96059138 -27.875 67 C-21.94583138 68.66016721 -15.20062147 69.00179456 -9.54296875 66.1796875 C-1.43731019 60.28145229 3.60008279 52.67579027 5.25 42.875 C6.12198043 31.29624349 4.99888305 21.9447919 -2.625 12.875 C-7.6680051 7.71192335 -11.3656213 5.74679684 -18.625 5.4375 C-25.94731879 5.65499462 -30.86345121 7.64900882 -36 12.875 Z " fill="#040404" transform="translate(145.75,7.125)"/>
<path d="M0 0 C7.74028795 1.87265031 12.40136361 6.51075082 18 12 C18.59167969 12.5465625 19.18335938 13.093125 19.79296875 13.65625 C21 15 21 15 21 17 C20.01 17.495 20.01 17.495 19 18 C16.19216677 22.52876327 14.06392812 27.09596566 12 32 C10.85660156 32.06058594 9.71320313 32.12117188 8.53515625 32.18359375 C7.04425695 32.26798428 5.55337225 32.35263302 4.0625 32.4375 C2.93038086 32.49647461 2.93038086 32.49647461 1.77539062 32.55664062 C-1.91944187 32.44038024 -1.91944187 32.44038024 -5 34 C-5.144375 35.155 -5.28875 36.31 -5.4375 37.5 C-5.623125 38.655 -5.80875 39.81 -6 41 C-6.99 41.495 -6.99 41.495 -8 42 C-9.13011652 39.7941576 -10.25415788 37.58554973 -11.375 35.375 C-11.69210938 34.75753906 -12.00921875 34.14007813 -12.3359375 33.50390625 C-15.25019288 27.73610915 -17.28545596 22.70369455 -17.125 16.125 C-17.10695313 15.15820312 -17.08890625 14.19140625 -17.0703125 13.1953125 C-17.04710938 12.47085938 -17.02390625 11.74640625 -17 11 C-16.34 11 -15.68 11 -15 11 C-14.95875 10.29875 -14.9175 9.5975 -14.875 8.875 C-12.65215369 1.57136214 -7.4902086 -1.36185611 0 0 Z " fill="#E61C22" transform="translate(101,148)"/>
<path d="M0 0 C6.40359897 0.36246787 6.40359897 0.36246787 8.8125 2.9375 C10.46235552 7.19239054 11.25853892 11.50761814 12 16 C12.99 16 13.98 16 15 16 C15.33 14.68 15.66 13.36 16 12 C19.45826342 11.94210994 22.91640293 11.90644179 26.375 11.875 C27.35984375 11.85824219 28.3446875 11.84148437 29.359375 11.82421875 C30.77089844 11.81455078 30.77089844 11.81455078 32.2109375 11.8046875 C33.08024902 11.79421387 33.94956055 11.78374023 34.84521484 11.77294922 C37 12 37 12 39 14 C39.25 17 39.25 17 39 20 C36.15385976 22.84614024 33.19630858 22.45579076 29.375 22.625 C28.66859375 22.66367188 27.9621875 22.70234375 27.234375 22.7421875 C25.49001476 22.83647724 23.74504309 22.91932891 22 23 C21.74605469 23.74765625 21.49210937 24.4953125 21.23046875 25.265625 C20.88628906 26.25046875 20.54210937 27.2353125 20.1875 28.25 C19.85105469 29.22453125 19.51460937 30.1990625 19.16796875 31.203125 C18.04521625 33.89172295 16.95228643 35.84696432 15 38 C12.5 38.5625 12.5 38.5625 10 38 C7.34535373 34.31488693 6.0814449 30.51941535 4.8125 26.1875 C4.46832031 25.02605469 4.12414062 23.86460937 3.76953125 22.66796875 C3.38861328 21.34732422 3.38861328 21.34732422 3 20 C2.37480469 20.65226562 1.74960938 21.30453125 1.10546875 21.9765625 C-3.20777281 24.78695134 -6.65733926 24.51904379 -11.6875 24.375 C-12.55439453 24.37371094 -13.42128906 24.37242187 -14.31445312 24.37109375 C-20.71861434 24.28138566 -20.71861434 24.28138566 -23 22 C-23.1875 18.4375 -23.1875 18.4375 -23 15 C-20.94077598 12.94077598 -16.78291876 13.58572421 -13.9375 13.4375 C-13.17888672 13.39431641 -12.42027344 13.35113281 -11.63867188 13.30664062 C-9.75934562 13.20026367 -7.87969756 13.09960066 -6 13 C-5.73445313 12.39671875 -5.46890625 11.7934375 -5.1953125 11.171875 C-4.66550781 9.97304687 -4.66550781 9.97304687 -4.125 8.75 C-3.77695313 7.96109375 -3.42890625 7.1721875 -3.0703125 6.359375 C-2.09586095 4.21131392 -1.07013571 2.10170798 0 0 Z " fill="#0B0101" transform="translate(119,166)"/>
<path d="M0 0 C0.66 0.33 1.32 0.66 2 1 C-1.3 4.3 -4.6 7.6 -8 11 C-8 6.67750434 -5.85084926 5.11604454 -3 2 C-2.01 1.34 -1.02 0.68 0 0 Z " fill="#C6C6C6" transform="translate(116,15)"/>
</svg>
